<svg xmlns="http://www.w3.org/2000/svg" width="13.241" height="12.446"
                                        viewBox="0 0 13.241 12.446">
                                        <path id="Tracé_2" data-name="Tracé 2"
                                            d="M32.5-1160.87c-.064.193-.173.524-.243.737l-.4,1.217c-.151.457-.393,1.194-.539,1.637l-.266.807H28.528c-1.391,0-2.528,0-2.528.007s.182.139.405.3l2.023,1.451c.891.639,1.628,1.17,1.638,1.179s.059-.1-.45,1.443c-.2.611-.369,1.123-.673,2.048L28.6-1149a1.814,1.814,0,0,0-.064.219c.008.006-.253.193,2.05-1.46l2.007-1.44.035-.025.817.588c2.624,1.885,3.273,2.349,3.277,2.346s-.049-.164-.114-.361-.232-.7-.371-1.124l-.87-2.648c-.155-.472-.2-.6-.2-.616s.917-.668,2.037-1.472,2.037-1.467,2.037-1.472-.975-.011-2.527-.012l-2.526,0-.176-.536c-.1-.295-.292-.886-.432-1.313l-.6-1.828c-.19-.578-.348-1.054-.353-1.058A3.188,3.188,0,0,0,32.5-1160.87Z"
                                            transform="translate(-26 1161.213)" fill="#ffad08" />
                                    </svg>